<svg xmlns="http://www.w3.org/2000/svg" viewBox="0 0 512 512" style="height: 512px; width: 512px;"><g class="" transform="translate(0,0)" style=""><g><path d="M247 22L247 103L265 103L265 22L247 22Z" class="" fill="#ff6200" fill-opacity="1"></path><path d="M215.025 121L203.525 167L308.475 167L296.975 121L215.025 121Z" class="" fill="#ff6200" fill-opacity="1"></path><path d="M192 185C174 185 146.357 206.459 123.027 235.621C103.459 260.081 86.527 289.095 77.158 311L434.842 311C425.471 289.095 408.534 260.083 388.962 235.623C365.63 206.461 337.983 185 320 185L192 185Z" class="" fill="#ff6200" fill-opacity="1"></path><path d="M217.719 329C218.406 334.463 219.749 341.676 222.436 348.838C225.091 355.915 228.977 362.594 234.242 367.275C239.507 371.956 246.008 375 256 375C265.992 375 272.493 371.956 277.758 367.275C283.023 362.595 286.908 355.915 289.564 348.838C292.252 341.676 293.594 334.463 294.281 329L217.72 329Z" class="" fill="#ff6200" fill-opacity="1"></path></g></g></svg>